<svg width="6" height="7" viewBox="0 0 6 7" fill="none" xmlns="http://www.w3.org/2000/svg">
<path d="M1.2638 6.16011C1.2638 6.09077 1.25046 6.05611 1.2238 6.05611L1.0398 6.14411C1.0398 6.10677 1.01846 6.08011 0.975797 6.06411L0.911797 6.05611C0.86913 6.05611 0.815797 6.07477 0.751797 6.11211C0.74113 6.08544 0.727797 6.05877 0.711797 6.03211C0.695797 6.00544 0.682464 5.98144 0.671797 5.96011C0.602464 5.82677 0.53313 5.68011 0.463797 5.52011C0.399797 5.35477 0.338464 5.19744 0.279797 5.04811C0.226464 4.89877 0.183797 4.78144 0.151797 4.69611C0.130464 4.62677 0.106464 4.52277 0.0797969 4.38411C0.0531302 4.24544 0.0264636 4.06944 -0.000203103 3.85611C0.0584636 3.89344 0.103797 3.91211 0.135797 3.91211C0.17313 3.91211 0.207797 3.85611 0.239797 3.74411C0.255797 3.76544 0.28513 3.77611 0.327797 3.77611C0.359797 3.77611 0.383797 3.76544 0.399797 3.74411L0.527797 3.55211L0.671797 3.60011H0.679797C0.690464 3.60011 0.70113 3.59477 0.711797 3.58411C0.722464 3.57344 0.738464 3.56277 0.759797 3.55211C0.802464 3.52544 0.834464 3.51211 0.855797 3.51211L0.879797 3.52011C1.01313 3.58411 1.09846 3.70144 1.1358 3.87211C1.2318 4.27744 1.3278 4.48011 1.4238 4.48011C1.5198 4.48011 1.6318 4.37877 1.7598 4.17611C1.8238 4.07477 1.8878 3.95744 1.9518 3.82411C2.02113 3.69077 2.09046 3.54144 2.1598 3.37611C2.17046 3.44011 2.18113 3.47211 2.1918 3.47211C2.21846 3.47211 2.2638 3.40544 2.3278 3.27211C2.39713 3.13877 2.50646 2.95477 2.6558 2.72011C2.74113 2.57611 2.8478 2.41344 2.9758 2.23211C3.10913 2.05077 3.25046 1.86411 3.3998 1.67211C3.54913 1.48011 3.69313 1.29877 3.8318 1.12811C3.9758 0.957438 4.1038 0.810772 4.2158 0.688105C4.3278 0.565438 4.41046 0.485439 4.4638 0.448105C4.66646 0.309439 4.82646 0.176105 4.9438 0.0481052C4.93846 0.0854384 4.93046 0.120105 4.9198 0.152105C4.91446 0.178772 4.9118 0.197439 4.9118 0.208105C4.9118 0.229438 4.92246 0.240105 4.9438 0.240105L5.1678 0.128105V0.160105C5.1678 0.202772 5.17846 0.224105 5.1998 0.224105C5.2158 0.224105 5.2478 0.200105 5.2958 0.152105C5.3438 0.104105 5.37046 0.0694386 5.3758 0.0481052L5.3598 0.160105L5.6318 0.000105381L5.5678 0.144105C5.65313 0.0854386 5.71446 0.0561051 5.7518 0.0561051C5.77313 0.0561051 5.78913 0.0694385 5.7998 0.0961051C5.81046 0.117438 5.8158 0.138772 5.8158 0.160105C5.8158 0.192105 5.80246 0.229438 5.7758 0.272105C5.74913 0.314772 5.71446 0.365439 5.6718 0.424105C5.6398 0.466772 5.58646 0.530772 5.5118 0.616105C5.44246 0.696105 5.3358 0.816105 5.1918 0.976105C5.0478 1.13077 4.8558 1.34677 4.6158 1.62411C4.5518 1.69344 4.45313 1.81611 4.3198 1.99211C4.18646 2.16277 4.03446 2.36277 3.8638 2.59211C3.69846 2.81611 3.53313 3.04277 3.3678 3.27211C3.20246 3.50144 3.0558 3.70944 2.9278 3.89611C2.7998 4.07744 2.70913 4.21344 2.6558 4.30411L2.1598 5.14411C2.05313 5.32544 1.96513 5.47477 1.8958 5.59211C1.82646 5.70411 1.77313 5.78144 1.7358 5.82411C1.6558 5.92011 1.5678 6.00544 1.4718 6.08011L1.3998 6.04011L1.3358 6.08011L1.2638 6.16011Z" fill="#70AA27"/>
</svg>
