<svg width="6" height="7" viewBox="0 0 6 7" fill="none" xmlns="http://www.w3.org/2000/svg">
<path d="M1.264 6.16011C1.264 6.09077 1.25066 6.05611 1.224 6.05611L1.04 6.14411C1.04 6.10677 1.01866 6.08011 0.975995 6.06411L0.911995 6.05611C0.869329 6.05611 0.815995 6.07477 0.751995 6.11211C0.741329 6.08544 0.727995 6.05877 0.711995 6.03211C0.695995 6.00544 0.682662 5.98144 0.671995 5.96011C0.602662 5.82677 0.533329 5.68011 0.463995 5.52011C0.399995 5.35477 0.338662 5.19744 0.279995 5.04811C0.226662 4.89877 0.183995 4.78144 0.151995 4.69611C0.130662 4.62677 0.106662 4.52277 0.0799953 4.38411C0.0533286 4.24544 0.0266619 4.06944 -4.73857e-06 3.85611C0.0586619 3.89344 0.103995 3.91211 0.135995 3.91211C0.173329 3.91211 0.207995 3.85611 0.239995 3.74411C0.255995 3.76544 0.285329 3.77611 0.327995 3.77611C0.359995 3.77611 0.383995 3.76544 0.399995 3.74411L0.527995 3.55211L0.671995 3.60011H0.679995C0.690662 3.60011 0.701329 3.59477 0.711995 3.58411C0.722662 3.57344 0.738662 3.56277 0.759995 3.55211C0.802662 3.52544 0.834662 3.51211 0.855995 3.51211L0.879995 3.52011C1.01333 3.58411 1.09866 3.70144 1.136 3.87211C1.232 4.27744 1.328 4.48011 1.424 4.48011C1.52 4.48011 1.632 4.37877 1.76 4.17611C1.824 4.07477 1.888 3.95744 1.952 3.82411C2.02133 3.69077 2.09066 3.54144 2.16 3.37611C2.17066 3.44011 2.18133 3.47211 2.192 3.47211C2.21866 3.47211 2.264 3.40544 2.328 3.27211C2.39733 3.13877 2.50666 2.95477 2.656 2.72011C2.74133 2.57611 2.848 2.41344 2.976 2.23211C3.10933 2.05077 3.25066 1.86411 3.4 1.67211C3.54933 1.48011 3.69333 1.29877 3.832 1.12811C3.976 0.957438 4.104 0.810772 4.216 0.688105C4.328 0.565438 4.41066 0.485439 4.464 0.448105C4.66666 0.309439 4.82666 0.176105 4.944 0.0481052C4.93866 0.0854384 4.93066 0.120105 4.92 0.152105C4.91466 0.178772 4.912 0.197439 4.912 0.208105C4.912 0.229438 4.92266 0.240105 4.944 0.240105L5.168 0.128105V0.160105C5.168 0.202772 5.17866 0.224105 5.2 0.224105C5.216 0.224105 5.248 0.200105 5.296 0.152105C5.344 0.104105 5.37066 0.0694386 5.376 0.0481052L5.36 0.160105L5.632 0.000105381L5.568 0.144105C5.65333 0.0854386 5.71466 0.0561051 5.752 0.0561051C5.77333 0.0561051 5.78933 0.0694385 5.8 0.0961051C5.81066 0.117438 5.816 0.138772 5.816 0.160105C5.816 0.192105 5.80266 0.229438 5.776 0.272105C5.74933 0.314772 5.71466 0.365439 5.672 0.424105C5.64 0.466772 5.58666 0.530772 5.512 0.616105C5.44266 0.696105 5.336 0.816105 5.192 0.976105C5.048 1.13077 4.856 1.34677 4.616 1.62411C4.552 1.69344 4.45333 1.81611 4.32 1.99211C4.18666 2.16277 4.03466 2.36277 3.864 2.59211C3.69866 2.81611 3.53333 3.04277 3.368 3.27211C3.20266 3.50144 3.056 3.70944 2.928 3.89611C2.8 4.07744 2.70933 4.21344 2.656 4.30411L2.16 5.14411C2.05333 5.32544 1.96533 5.47477 1.896 5.59211C1.82666 5.70411 1.77333 5.78144 1.736 5.82411C1.656 5.92011 1.568 6.00544 1.472 6.08011L1.4 6.04011L1.336 6.08011L1.264 6.16011Z" fill="#006FFF"/>
</svg>
